<svg preserveAspectRatio="none" overflow="visible" style="display: block;" width="21.3333" height="26.6667" viewBox="0 0 21.3333 26.6667" fill="none" xmlns="http://www.w3.org/2000/svg">
<g id="Container">
<path id="Icon" d="M10.6667 26.6667C7.57778 25.8889 5.02778 24.1167 3.01667 21.35C1.00556 18.5833 0 15.5111 0 12.1333V4L10.6667 0L21.3333 4V12.1333C21.3333 15.5111 20.3278 18.5833 18.3167 21.35C16.3056 24.1167 13.7556 25.8889 10.6667 26.6667V26.6667M10.6667 23.8667C12.8222 23.2 14.6222 21.8833 16.0667 19.9167C17.5111 17.95 18.3556 15.7556 18.6 13.3333H10.6667V2.83333L2.66667 5.83333V12.1333C2.66667 12.3778 2.66667 12.5778 2.66667 12.7333C2.66667 12.8889 2.68889 13.0889 2.73333 13.3333H10.6667V23.8667V23.8667" fill="#5A6400"/>
</g>
</svg>
